<?xml version="1.0" encoding="utf-8"?>
<?xml-stylesheet type="text/xsl" href="rss1.xsl"?>
<rss version="2.0" xmlns:atom="http://www.w3.org/2005/Atom" xmlns:content="http://purl.org/rss/1.0/modules/content/" xmlns:dc="http://purl.org/dc/elements/1.1/" xmlns:media="http://search.yahoo.com/mrss/">
<channel>
 <title>Getty</title>
 <link>http://www.gettyimg.com/</link>
 <atom:link href="http://www.gettyimg.com/" rel="self" type="application/rss+xml" />

 
                <item>
                <title><![CDATA[【DVD】DVD9 - Roger Waters - The Wall – Live in Berlin (DVD ISO) - 1990/2003]]></title>
                <link><![CDATA[https://sharemania.us/threads/roger-waters-the-wall-%E2%80%93-live-in-berlin-dvd-iso-1990-2003.234455/]]></link>
                <description><![CDATA[<article>
<blockquote class="messageText SelectQuoteContainer ugc baseHtml">
<img src="https://i.imgur.com/uu5VEQz.jpg" class="bbCodeImage LbImage" alt="[​IMG]" data-url="https://i.imgur.com/uu5VEQz.jpg" style=""> <br>
<div class="ToggleTriggerAnchor bbCodeSpoilerContainer">
<button type="button" class="button bbCodeSpoilerButton ToggleTrigger Tooltip JsOnly" data-target="> .SpoilerTarget"><span>Spoiler: <span class="SpoilerTitle">MediaInfo</span></span></button>
<div class="SpoilerTarget bbCodeSpoilerText">Format : ISO 9660 / DVD Video<br>
Format profile : Program<br>
File size : 7.58 GiB<br>
Duration : 3 h 40 min<br>
Overall bit rate mode : Variable<br>
Overall bit rate : 4 925 kb/s<br>
Frame rate : 29.970 FPS<br>
Movie name : THE_WALL<br>
Encoded date : 2023-12-02 17:24:47.00+61:00<br>
<br>
Video<br>
ID : 224 (0xE0)<br>
Format : MPEG Video<br>
Format version : Version 2<br>
Format profile : Main@Main<br>
Format settings : CustomMatrix / BVOP<br>
Format settings, BVOP : Yes<br>
Format settings, Matrix : Custom<br>
Format settings, GOP : M=3, N=15<br>
Format settings, picture struc : Frame<br>
Duration : 3 h 40 min<br>
Bit rate mode : Variable<br>
Bit rate : 4 015 kb/s<br>
Maximum bit rate : 9 800 kb/s<br>
Width : 720 pixels<br>
Height : 480 pixels<br>
Display aspect ratio : 4:3<br>
Frame rate : 29.970 (29970/1000) FPS<br>
Original frame rate : 29.970 (30000/1001) FPS<br>
Standard : NTSC<br>
Color space : YUV<br>
Chroma subsampling : 4:2:0<br>
Bit depth : 8 bits<br>
Scan type : Interlaced<br>
Scan order : Top Field First<br>
Compression mode : Lossy<br>
Bits/(Pixel*Frame) : 0.388<br>
Stream size : 6.18 GiB (82%)<br>
Source : VIDEO_TS\VTS_02_0.IFO<br>
<br>
Audio #1<br>
ID : 189 (0xBD)-128 (0x80)<br>
Format : AC-3<br>
Format/Info : Audio Coding 3<br>
Commercial name : Dolby Digital<br>
Muxing mode : DVD-Video<br>
Duration : 3 h 40 min<br>
Bit rate mode : Constant<br>
Bit rate : 256 kb/s<br>
Channel(s) : 2 channels<br>
Channel layout : L R<br>
Sampling rate : 48.0 kHz<br>
Frame rate : 31.250 FPS (1536 SPF)<br>
Compression mode : Lossy<br>
Stream size : 404 MiB (5%)<br>
Language : English<br>
Service kind : Complete Main<br>
Source : VIDEO_TS\VTS_02_0.IFO<br>
<br>
Audio #2<br>
ID : 189 (0xBD)-129 (0x81)<br>
Format : AC-3<br>
Format/Info : Audio Coding 3<br>
Commercial name : Dolby Digital<br>
Muxing mode : DVD-Video<br>
Duration : 3 h 40 min<br>
Bit rate mode : Constant<br>
Bit rate : 448 kb/s<br>
Channel(s) : 6 channels<br>
Channel layout : L R C LFE Ls Rs<br>
Sampling rate : 48.0 kHz<br>
Frame rate : 31.250 FPS (1536 SPF)<br>
Compression mode : Lossy<br>
Stream size : 706 MiB (9%)<br>
Language : English<br>
Service kind : Complete Main<br>
Source : VIDEO_TS\VTS_02_0.IFO<br>
<br>
Menu #1<br>
Duration : 1 h 50 min<br>
00:00:00.000 : Chapter 1<br>
00:04:25.000 : Chapter 2<br>
00:07:09.500 : Chapter 3<br>
00:11:01.000 : Chapter 4<br>
00:12:28.500 : Chapter 5<br>
00:18:55.000 : Chapter 6<br>
00:25:53.000 : Chapter 7<br>
00:29:28.000 : Chapter 8<br>
00:33:20.500 : Chapter 9<br>
00:38:17.000 : Chapter 10<br>
00:39:56.500 : Chapter 11<br>
00:42:39.500 : Chapter 12<br>
00:46:48.000 : Chapter 13<br>
00:51:16.000 : Chapter 14<br>
00:52:45.000 : Chapter 15<br>
00:57:40.000 : Chapter 16<br>
01:01:00.000 : Chapter 17<br>
01:05:16.000 : Chapter 18<br>
01:06:42.500 : Chapter 19<br>
01:08:58.500 : Chapter 20<br>
01:17:46.067 : Chapter 21<br>
01:22:28.500 : Chapter 22<br>
01:27:32.000 : Chapter 23<br>
01:32:29.500 : Chapter 24<br>
01:39:34.500 : Chapter 25<br>
01:47:34.000 : Chapter 26<br>
List (Audio) : 0 / 1<br>
Source : VIDEO_TS\VTS_02_0.IFO<br>
<br>
Menu #2<br>
Duration : 1 h 50 min<br>
00:00:00.000 : Chapter 1<br>
00:04:25.000 : Chapter 2<br>
00:07:09.500 : Chapter 3<br>
00:11:01.000 : Chapter 4<br>
00:12:28.500 : Chapter 5<br>
00:18:55.000 : Chapter 6<br>
00:25:53.000 : Chapter 7<br>
00:29:28.000 : Chapter 8<br>
00:33:20.500 : Chapter 9<br>
00:38:17.000 : Chapter 10<br>
00:39:56.500 : Chapter 11<br>
00:42:39.500 : Chapter 12<br>
00:46:48.000 : Chapter 13<br>
00:51:16.000 : Chapter 14<br>
00:52:45.000 : Chapter 15<br>
00:57:40.000 : Chapter 16<br>
01:01:00.000 : Chapter 17<br>
01:05:16.000 : Chapter 18<br>
01:06:42.500 : Chapter 19<br>
01:08:58.500 : Chapter 20<br>
01:17:46.067 : Chapter 21<br>
01:22:28.500 : Chapter 22<br>
01:27:32.000 : Chapter 23<br>
01:32:29.500 : Chapter 24<br>
01:39:34.500 : Chapter 25<br>
01:47:34.000 : Chapter 26<br>
List (Audio) : 0 / 1<br>
Source : VIDEO_TS\VTS_02_0.IFO</div>
</div><br>
<b>The Wall – Live in Berlin</b> was a live concert performance by Roger Waters and numerous guest artists, of the Pink Floyd studio album The Wall, itself largely written by Waters during his time with the band. The show was held in Berlin on 21 July 1990, to commemorate the fall of the Berlin Wall eight months earlier. A live album of the concert was released 21 August 1990. A video of the concert was also commercially released.<br>
<br>
<span style="text-decoration: underline"><b>Tracklist:<br>
</b></span><br>
1 In The Flesh 4:06<br>
2 The Thin Ice 3:08<br>
3 Another Brick In The Wall (Part 1) 3:38<br>
4 The Happiest Days Of Our Lives 1:20<br>
5 Another Brick In The Wall (Part 2) 6:26<br>
6 Mother 6:37<br>
7 Goodbye Blue Sky 3:52<br>
8 Empty Spaces 3:47<br>
10 Young Lust 6:08<br>
11 One Of My Turns 2:44<br>
12 Don't Leave Me Now 5:11<br>
13 Another Brick In The Wall (Part 3) 3:24<br>
14 Goodbye Cruel World 1:37<br>
15 Hey You 5:02<br>
16 Is Anybody Out There? 3:01<br>
17 Nobody Home 4:45<br>
18 Vera 1:11<br>
19 Bring The Boys Back Home 2:40<br>
20 Comfortably Numb 8:02<br>
21 In The Flesh 5:10<br>
22 Run Like Hell 4:51<br>
23 Waiting For The Worms 4:09<br>
24 Stop 0:23<br>
25 The Trial 5:52<br>
26 The Tide Is Turning<br>
<br>
<div class="bbCodeBlock bbCodeVfcHH HiddenContent">
<div class="attribution type">Hidden Content:</div>
<blockquote>You must either reply or click 'Like' to see the hidden information contained here.</blockquote>
</div>password:
<div class="bbCodeBlock bbCodeVfcHH HiddenContent">
<div class="attribution type">Hidden Content:</div>
<blockquote>You must reply before you can see the hidden data contained here.</blockquote>
</div>
<div class="messageTextEndMarker">&nbsp;</div>
</blockquote>
</article>]]></description>
                <author><![CDATA[JrAleixo]]></author>
                </item>

                
                <item>
                <title><![CDATA[【Cinema Center】MOVIE - Toys.of.Terror.2020.1080p.HULU.WEB-DL.AAC2.0.H.264-Samuel]]></title>
                <link><![CDATA[https://sharemania.us/threads/toys-of-terror-2020-1080p-hulu-web-dl-aac2-0-h-264-samuel.234456/]]></link>
                <description><![CDATA[<article>
<blockquote class="messageText SelectQuoteContainer ugc baseHtml">
<div style="text-align: center"><b><span style="font-size: 26px">Toys of Terror</span></b><br>
<img src="https://i.imgur.com/HEpxOJO.jpg" class="bbCodeImage LbImage" alt="[​IMG]" data-url="https://i.imgur.com/HEpxOJO.jpg" style=""><br>
<b><a href="https://i.imgur.com/QuSN2FX.jpg" target="_blank" class="externalLink" rel="nofollow">Alternate Artwork 1</a></b> | <b><a href="https://i.imgur.com/2qof7UU.jpg" target="_blank" class="externalLink" rel="nofollow">Thumbnail 1</a></b> | <b><a href="https://i.imgur.com/k0Uh4RP.jpg" target="_blank" class="externalLink" rel="nofollow">Thumbnail 2</a></b> | <b><a href="https://i.imgur.com/fMEelko.jpg" target="_blank" class="externalLink" rel="nofollow">Poster</a></b> | <b><a href="https://i.imgur.com/B5xGHAQ.jpg" target="_blank" class="externalLink" rel="nofollow">Key Art</a></b><br>
<br>
<b>Starring:</b> Kyana Teresa, Georgia Waters, Verity Marks • <b>Director:</b> Nicholas Verso<br>
TV14 • Horror • Movie • 2020 • 1h 26m<br>
<br>
<div class="bbCodeBlock bbCodeQuote">
<aside>
<blockquote class="quoteContainer"><div class="quote"><b><span style="font-size: 15px"><span style="font-family: 'Arial'">Description</span></span></b><br>
David and Hannah Cashman have promised their family a fun Christmas getaway, but when the kids find a stash of old toys, things become... not so fun.</div><div class="quoteExpand">Click to expand...</div></blockquote>
</aside>
</div>
<div class="bbCodeBlock bbCodeQuote">
<aside>
<blockquote class="quoteContainer"><div class="quote"><b><span style="font-size: 15px"><span style="font-family: 'Arial'">More Information</span></span></b><br>
<b>Starring:</b> Kyana Teresa, Georgia Waters, Verity Marks, Dayo Ade, Saul Elias<br>
<b>Director:</b> Nicholas Verso<br>
<br>
TV14 • Horror • Movie (2020)</div><div class="quoteExpand">Click to expand...</div></blockquote>
</aside>
</div>
<div class="bbCodeBlock bbCodeQuote">
<aside>
<blockquote class="quoteContainer"><div class="quote"><b><span style="font-size: 15px">Source</span></b><br>
<img src="https://i.imgur.com/4uiLEFv.png" class="bbCodeImage LbImage" alt="[​IMG]" data-url="https://i.imgur.com/4uiLEFv.png" style=""></div><div class="quoteExpand">Click to expand...</div></blockquote>
</aside>
</div>
<div class="bbCodeBlock bbCodeQuote">
<aside>
<blockquote class="quoteContainer"><div class="quote"><b><span style="font-size: 15px">Release Name</span></b><br>
Toys.of.Terror.2020.1080p.HULU.WEB-DL.AAC2.0.H.264-Samuel</div><div class="quoteExpand">Click to expand...</div></blockquote>
</aside>
</div>
<div class="ToggleTriggerAnchor bbCodeSpoilerContainer">
<button type="button" class="button bbCodeSpoilerButton ToggleTrigger Tooltip JsOnly" data-target="> .SpoilerTarget"><span>Spoiler: <span class="SpoilerTitle">Media Information</span></span></button>
<div class="SpoilerTarget bbCodeSpoilerText">General<br>
Complete name : Toys.of.Terror.2020.1080p.HULU.WEB-DL.AAC2.0.H.264-Samuel.mkv<br>
Format : Matroska<br>
Format version : Version 4<br>
File size : 3.31 GiB<br>
Duration : 1 h 26 min<br>
Overall bit rate : 5 483 kb/s<br>
Frame rate : 23.976 FPS<br>
Encoded date : 2023-12-15 16:43:14 UTC<br>
Writing application : mkvmerge v72.0.0 ('Minuano (Six-eight)') 64-bit<br>
Writing library : libebml v1.4.4 + libmatroska v1.7.1<br>
<br>
Video<br>
ID : 1<br>
Format : AVC<br>
Format/Info : Advanced Video Codec<br>
Format profile : High@L4<br>
Format settings : CABAC / 4 Ref Frames<br>
Format settings, CABAC : Yes<br>
Format settings, Reference frames : 4 frames<br>
Codec ID : V_MPEG4/ISO/AVC<br>
Duration : 1 h 26 min<br>
Bit rate : 5 418 kb/s<br>
Width : 1 920 pixels<br>
Height : 1 080 pixels<br>
Display aspect ratio : 16:9<br>
Frame rate mode : Constant<br>
Frame rate : 23.976 (24000/1001) FPS<br>
Color space : YUV<br>
Chroma subsampling : 4:2:0<br>
Bit depth : 8 bits<br>
Scan type : Progressive<br>
Bits/(Pixel*Frame) : 0.109<br>
Stream size : 3.27 GiB (99%)<br>
Default : Yes<br>
Forced : No<br>
<br>
Audio<br>
ID : 2<br>
Format : AAC LC SBR<br>
Format/Info : Advanced Audio Codec Low Complexity with Spectral Band Replication<br>
Commercial name : HE-AAC<br>
Format settings : Explicit<br>
Codec ID : A_AAC-2<br>
Duration : 1 h 26 min<br>
Bit rate : 64.0 kb/s<br>
Channel(s) : 2 channels<br>
Channel layout : L R<br>
Sampling rate : 48.0 kHz<br>
Frame rate : 23.438 FPS (2048 SPF)<br>
Compression mode : Lossy<br>
Stream size : 39.5 MiB (1%)<br>
Language : English<br>
Default : Yes<br>
Forced : No<br>
<br>
Text<br>
ID : 3<br>
Format : UTF-8<br>
Codec ID : S_TEXT/UTF8<br>
Codec ID/Info : UTF-8 Plain Text<br>
Duration : 1 h 25 min<br>
Bit rate : 52 b/s<br>
Frame rate : 0.249 FPS<br>
Count of elements : 1278<br>
Stream size : 33.1 KiB (0%)<br>
Title : SDH<br>
Language : English<br>
Default : No<br>
Forced : No</div>
</div><br>
<b>Screenshots</b><br>
<img src="https://i.imgur.com/74tvbyz.png" class="bbCodeImage LbImage" alt="[​IMG]" data-url="https://i.imgur.com/74tvbyz.png" style=""><br>
<br>
<b>Download</b><br>
<div class="bbCodeBlock bbCodeVfcHH HiddenContent">
<div class="attribution type">Hidden Content:</div>
<blockquote>You must reply before you can see the hidden data contained here.</blockquote>
</div></div>
<div class="messageTextEndMarker">&nbsp;</div>
</blockquote>
</article>]]></description>
                <author><![CDATA[Samuel]]></author>
                </item>

                </channel></rss>